<svg width="96" height="96" viewBox="0 0 96 96" fill="none" xmlns="http://www.w3.org/2000/svg">
  <path fill="#54e0c7" d="M47.996 13.24c2.32-1.266 5.12-1.266 7.44 0l23.278 12.697c5.104 2.784 5.104 10.108 0 12.892L55.436 51.526a7.744 7.744 0 0 1-7.44 0L24.718 38.83c-5.104-2.784-5.104-10.108 0-12.892L47.996 13.24Z"/>
  <path fill="#5fc8ea" d="M20 42.766 47.995 58.04a7.744 7.744 0 0 0 7.441 0L83.43 42.766v15.021a7.744 7.744 0 0 1-4.035 6.797L55.436 77.652a7.744 7.744 0 0 1-7.44 0L24.034 64.584A7.744 7.744 0 0 1 20 57.787V42.766Z"/>
</svg>
